<svg xmlns="http://www.w3.org/2000/svg" viewBox="0 0 1920 1080">
  <defs>
    <linearGradient id="sky" x1="0" y1="0" x2="0" y2="1"><stop offset="0" stop-color="#86d9ff"/><stop offset="1" stop-color="#d9f7ff"/></linearGradient>
    <linearGradient id="ground" x1="0" y1="0" x2="0" y2="1"><stop offset="0" stop-color="#4abf5e"/><stop offset="1" stop-color="#248a3c"/></linearGradient>
  </defs>
  <rect width="1920" height="1080" fill="url(#sky)"/>
  <rect y="220" width="1920" height="860" fill="url(#ground)"/>
  <path d="M830 1080c-70-250-48-436 62-584 92-124 106-212 88-306 154 66 198 208 128 344-54 106-52 224 14 546z" fill="#c79a63" stroke="#1a1a1a" stroke-width="8" opacity="0.95"/>
  <path d="M866 1080c-42-202-24-338 46-462 58-100 68-186 48-272 106 56 132 146 82 258-42 94-40 180 8 476z" fill="#e2bf84" opacity="0.9"/>
  <g stroke="#1a1a1a" stroke-width="8" fill="#2f8a38">
    <rect x="40" y="180" width="110" height="900" rx="40"/><rect x="1770" y="180" width="110" height="900" rx="40"/>
  </g>
  <g fill="#48ad4d" stroke="#1a1a1a" stroke-width="5">
    <path d="M86 260c120-30 178-8 246 56-102 8-178-4-246-56z"/><path d="M84 430c126-16 184 8 250 84-112-2-186-24-250-84z"/><path d="M84 620c126-16 184 8 250 84-112-2-186-24-250-84z"/><path d="M84 810c126-16 184 8 250 84-112-2-186-24-250-84z"/>
    <path d="M1834 260c-120-30-178-8-246 56 102 8 178-4 246-56z"/><path d="M1836 430c-126-16-184 8-250 84 112-2 186-24 250-84z"/><path d="M1836 620c-126-16-184 8-250 84 112-2 186-24 250-84z"/><path d="M1836 810c-126-16-184 8-250 84 112-2 186-24 250-84z"/>
  </g>
  <g fill="#ff67a4" stroke="#1a1a1a" stroke-width="4">
    <circle cx="430" cy="880" r="20"/><circle cx="520" cy="760" r="16"/><circle cx="1420" cy="840" r="18"/><circle cx="1520" cy="720" r="14"/>
  </g>
  <g fill="#ffd84a" stroke="#1a1a1a" stroke-width="3">
    <path d="M660 300c10 0 18 7 20 18-12 0-20-5-24-14z"/>
    <path d="M1270 340c10 0 18 7 20 18-12 0-20-5-24-14z"/>
    <path d="M610 680c10 0 18 7 20 18-12 0-20-5-24-14z"/>
    <path d="M1290 640c10 0 18 7 20 18-12 0-20-5-24-14z"/>
  </g>
  <g fill="none" stroke="#1a1a1a" stroke-width="4">
    <path d="M520 260q30-24 60 0"/><path d="M1360 280q30-24 60 0"/>
  </g>
</svg>
