<svg xmlns="http://www.w3.org/2000/svg" viewBox="0 0 1920 80">
  <path d="M10 40c140 0 140-24 280-24s140 24 280 24 140-24 280-24 140 24 280 24 140-24 280-24 140 24 280 24" fill="none" stroke="#2d9440" stroke-width="14" stroke-linecap="round"/>
  <g fill="#58c161" stroke="#1a1a1a" stroke-width="3">
    <path d="M180 44c26 0 36 8 46 24-30 2-42-6-46-24z"/><path d="M430 34c-26 0-36-8-46-24 30-2 42 6 46 24z"/>
    <path d="M760 44c26 0 36 8 46 24-30 2-42-6-46-24z"/><path d="M1010 34c-26 0-36-8-46-24 30-2 42 6 46 24z"/>
    <path d="M1320 44c26 0 36 8 46 24-30 2-42-6-46-24z"/><path d="M1560 34c-26 0-36-8-46-24 30-2 42 6 46 24z"/>
  </g>
  <g fill="#ff67a4" stroke="#1a1a1a" stroke-width="2"><circle cx="940" cy="28" r="8"/><circle cx="960" cy="28" r="8"/><circle cx="950" cy="42" r="8"/></g>
</svg>
