<svg xmlns="http://www.w3.org/2000/svg" viewBox="0 0 100 100">
  <defs><radialGradient id="sand" cx="50%" cy="44%" r="55%"><stop offset="0" stop-color="#f5e6bf"/><stop offset="1" stop-color="#cba97a"/></radialGradient></defs>
  <circle cx="50" cy="50" r="44" fill="url(#sand)" stroke="#1a1a1a" stroke-width="4"/>
  <circle cx="50" cy="50" r="22" fill="#fceec9" stroke="#b88f61" stroke-width="2"/>
  <path d="M22 20c10 0 16 5 18 14-12 0-21-4-26-10zM76 22c-10 0-16 5-18 14 12 0 21-4 26-10zM24 78c10 0 16-5 18-14-12 0-21 4-26 10zM76 76c-10 0-16-5-18-14 12 0 21 4 26 10z" fill="#63c663" stroke="#1a1a1a" stroke-width="2"/>
</svg>
