<svg xmlns="http://www.w3.org/2000/svg" viewBox="0 0 128 200" width="128" height="200">
  <g stroke="#111" stroke-width="3.5" stroke-linecap="round" stroke-linejoin="round">
    <ellipse cx="64" cy="186" rx="32" ry="10" fill="#000" opacity="0.2" stroke="none"/>
    <ellipse cx="64" cy="178" rx="36" ry="12" fill="#ff71bf"/>
    <rect x="50" y="122" width="28" height="34" rx="9" fill="#ff8fd1"/>
    <rect x="48" y="148" width="12" height="24" rx="6" fill="#d39a71"/>
    <rect x="68" y="148" width="12" height="24" rx="6" fill="#d39a71"/>
    <rect x="39" y="126" width="14" height="24" rx="7" fill="#d39a71"/>
    <rect x="75" y="126" width="14" height="24" rx="7" fill="#d39a71"/>
    <circle cx="64" cy="88" r="30" fill="#d7a074"/>
    <path d="M34 80c2-20 18-28 30-28s28 8 30 28" fill="#e467ad"/>
    <ellipse cx="64" cy="64" rx="30" ry="12" fill="#ff83ca"/>
    <path d="M46 84c-7 10-8 20-8 28M82 84c7 10 8 20 8 28" fill="#6f3e27"/>
    <path d="M46 112l6 6M82 112l-6 6" fill="#6f3e27"/>
    <circle cx="52" cy="90" r="5" fill="#fff"/>
    <circle cx="76" cy="90" r="5" fill="#fff"/>
    <circle cx="53" cy="91" r="2" fill="#111"/>
    <circle cx="77" cy="91" r="2" fill="#111"/>
    <ellipse cx="52" cy="102" rx="4" ry="2.5" fill="#ff9ea3"/>
    <ellipse cx="76" cy="102" rx="4" ry="2.5" fill="#ff9ea3"/>
    <path d="M56 106c3 3 13 3 16 0" fill="none"/>
    <rect x="82" y="124" width="16" height="12" rx="2" fill="#6ec0ff"/>
    <circle cx="85" cy="130" r="3" fill="#dff2ff"/>
    <circle cx="95" cy="130" r="3" fill="#dff2ff"/>
    <ellipse cx="56" cy="70" rx="8" ry="4" fill="#fff" opacity="0.35" stroke="none"/>
  </g>
</svg>
