<svg xmlns="http://www.w3.org/2000/svg" width="200" height="200" viewBox="0 0 200 200" role="img" aria-labelledby="title desc">
  <title id="title">Purple Explorer Token</title>
  <desc id="desc">Curious kid explorer standing on a purple jungle token base.</desc>
  <defs>
    <filter id="purple-base-filter" x="-20%" y="-20%" width="140%" height="160%">
      <feDropShadow dx="0" dy="6" stdDeviation="4" flood-color="#3A1C67" flood-opacity="0.35"/>
    </filter>
  </defs>
  <g id="purple-token">
    <ellipse id="purple-base-shadow" cx="100" cy="162" rx="56" ry="16" fill="#3A1C67" opacity="0.28"/>
    <g id="purple-base" filter="url(#purple-base-filter)">
      <ellipse cx="100" cy="152" rx="58" ry="18" fill="#5E2A8F" stroke="#220F3D" stroke-width="4"/>
      <ellipse cx="100" cy="146" rx="56" ry="16" fill="#8B4DCE" stroke="#220F3D" stroke-width="4"/>
      <ellipse cx="88" cy="141" rx="24" ry="7" fill="#C29AF5" opacity="0.7"/>
    </g>
    <g id="purple-explorer" stroke="#2B1236" stroke-width="4" stroke-linecap="round" stroke-linejoin="round">
      <ellipse id="legs" cx="100" cy="134" rx="17" ry="16" fill="#52A1A6"/>
      <rect id="shirt" x="82" y="103" width="36" height="34" rx="12" fill="#A783F3"/>
      <circle id="head" cx="100" cy="82" r="28" fill="#FFD7C3"/>
      <path id="hair" d="M77 82c4-16 16-24 29-24 12 0 24 8 27 24-7-5-14-7-27-7-13 0-20 2-29 7z" fill="#2B1A4A"/>
      <g id="hat">
        <ellipse cx="100" cy="62" rx="31" ry="10" fill="#D7C6A5"/>
        <rect x="85" y="44" width="30" height="18" rx="8" fill="#E6D7BA"/>
      </g>
      <circle id="left-eye" cx="91" cy="83" r="5" fill="#FFFFFF"/>
      <circle id="right-eye" cx="109" cy="83" r="5" fill="#FFFFFF"/>
      <circle cx="91" cy="84" r="2" fill="#2B1236" stroke="none"/>
      <circle cx="109" cy="84" r="2" fill="#2B1236" stroke="none"/>
      <path id="smile" d="M92 95c4 4 12 4 16 0" fill="none"/>
      <circle id="left-cheek" cx="84" cy="92" r="4" fill="#F794B8" stroke="none" opacity="0.8"/>
      <circle id="right-cheek" cx="116" cy="92" r="4" fill="#F794B8" stroke="none" opacity="0.8"/>
      <path id="left-arm" d="M82 114l-13 11" fill="none"/>
      <path id="right-arm" d="M118 114l13 11" fill="none"/>
      <path id="left-leg" d="M93 136l-6 11" fill="none"/>
      <path id="right-leg" d="M107 136l6 11" fill="none"/>
      <circle id="compass-badge" cx="114" cy="116" r="5" fill="#FFD86B"/>
    </g>
  </g>
</svg>
