<svg xmlns="http://www.w3.org/2000/svg" viewBox="0 0 200 280"><rect x="8" y="8" width="184" height="264" rx="24" fill="#3393ff" stroke="#1a1a1a" stroke-width="6"/><rect x="20" y="20" width="160" height="240" rx="20" fill="none" stroke="#47b64e" stroke-width="4" stroke-dasharray="14 12"/><circle cx="100" cy="146" r="52" fill="#2072d3" stroke="#1a1a1a" stroke-width="6"/><circle cx="86" cy="130" r="14" fill="#fff" opacity="0.35"/><path d="M58 46c14 0 22 8 26 22-18 0-30-6-36-18zM142 46c-14 0-22 8-26 22 18 0 30-6 36-18zM58 234c14 0 22-8 26-22-18 0-30 6-36 18zM142 234c-14 0-22-8-26-22 18 0 30 6 36 18z" fill="#5cd05f" stroke="#1a1a1a" stroke-width="3"/></svg>
