<svg xmlns="http://www.w3.org/2000/svg" viewBox="0 0 256 256">
  <path d="M166 8C132 30 132 74 162 104" fill="none" stroke="#3f8e3f" stroke-width="10" stroke-linecap="round"/>
  <circle cx="160" cy="12" r="8" fill="#52b84f" stroke="#1a1a1a" stroke-width="4"/>
  <path d="M170 106c24 6 36 22 32 42" fill="none" stroke="#7a4a1e" stroke-width="10" stroke-linecap="round"/>
  <g fill="#9b5a2e" stroke="#1a1a1a" stroke-width="6">
    <circle cx="128" cy="118" r="56"/>
    <circle cx="82" cy="92" r="22"/>
    <circle cx="174" cy="92" r="22"/>
  </g>
  <ellipse cx="128" cy="124" rx="40" ry="34" fill="#f6cc9e" stroke="#1a1a1a" stroke-width="5"/>
  <ellipse cx="128" cy="184" rx="38" ry="33" fill="#f6cc9e" stroke="#1a1a1a" stroke-width="5"/>
  <circle cx="112" cy="116" r="10" fill="#fff" stroke="#1a1a1a" stroke-width="4"/>
  <circle cx="146" cy="116" r="10" fill="#fff" stroke="#1a1a1a" stroke-width="4"/>
  <circle cx="114" cy="118" r="4" fill="#202020"/>
  <circle cx="148" cy="118" r="4" fill="#202020"/>
  <ellipse cx="130" cy="132" rx="6" ry="4" fill="#7a4a1e"/>
  <path d="M108 144q20 18 40 0" fill="none" stroke="#7a2f1c" stroke-width="5" stroke-linecap="round"/>
  <path d="M92 168 64 192" fill="none" stroke="#9b5a2e" stroke-width="14" stroke-linecap="round"/>
  <path d="M164 168 192 192" fill="none" stroke="#9b5a2e" stroke-width="14" stroke-linecap="round"/>
  <ellipse cx="146" cy="102" rx="12" ry="8" fill="#fff" opacity="0.2"/>
</svg>
