<svg xmlns="http://www.w3.org/2000/svg" viewBox="0 0 256 256">
  <g fill="none" stroke="#fff" stroke-width="3" stroke-linecap="round" opacity="0.9">
    <path d="M26 30h76M26 30l38 38M102 30 64 68M64 68v52"/>
    <path d="M38 42h52M48 52h32"/>
  </g>
  <g stroke="#1a1a1a" stroke-width="6" stroke-linecap="round" fill="none">
    <path d="M110 150 70 126M114 164 64 166M118 178 74 206M126 188 92 230"/>
    <path d="M146 150 186 126M142 164 192 166M138 178 182 206M130 188 164 230"/>
  </g>
  <ellipse cx="128" cy="160" rx="56" ry="54" fill="#171717" stroke="#1a1a1a" stroke-width="6"/>
  <circle cx="112" cy="146" r="20" fill="#fff" stroke="#1a1a1a" stroke-width="5"/>
  <circle cx="146" cy="146" r="20" fill="#fff" stroke="#1a1a1a" stroke-width="5"/>
  <circle cx="116" cy="152" r="8" fill="#2536ff"/>
  <circle cx="150" cy="152" r="8" fill="#2536ff"/>
  <ellipse cx="114" cy="138" rx="5" ry="3" fill="#fff"/>
  <ellipse cx="148" cy="138" rx="5" ry="3" fill="#fff"/>
  <ellipse cx="146" cy="136" rx="18" ry="13" fill="#fff" opacity="0.2"/>
  <path d="M112 177q16 14 32 0" stroke="#fff" stroke-width="5" fill="none" stroke-linecap="round"/>
</svg>
